<svg id="Capa_1" enable-background="new 0 0 512 512" height="512" viewBox="0 0 512 512" width="512" xmlns="http://www.w3.org/2000/svg"><g id="Q"><path d="m28.012 235.714c0 147.591 82.251 235.699 220.02 235.699 31.992 0 61.86-5.475 88.931-16.294 33.285 23.26 56.025 42.585 90.645 53.182l12.083 3.699 44.297-89.017c-9.722-4.003-35.28-10.899-66.812-31.219 31.362-42.795 44.912-90.468 44.912-156.051.001-145.391-82.895-235.713-216.327-235.713-134.312 0-217.749 90.322-217.749 235.714zm176.367 124.599c14.998 5.496 17.545 6.294 23.13 8.591-52.837-7.441-82.764-55.055-82.764-133.19 0-85.255 35.669-132.2 100.444-132.2 64.6 0 100.166 46.945 100.166 132.2 0 37.218-6.973 67.316-20.757 89.71-43.205-30.138-76.003-38.02-83.73-41.237z"/></g></svg>